<svg data-v-6805eed4="" version="1.0" xmlns="http://www.w3.org/2000/svg" xmlns:xlink="http://www.w3.org/1999/xlink" width="100%" height="100%" viewBox="0 0 340.000000 250.000000" preserveAspectRatio="xMidYMid meet" color-interpolation-filters="sRGB" style="margin: auto;"> <rect data-v-6805eed4="" x="0" y="0" width="100%" height="100%" fill="#212529" fill-opacity="1" class="background"></rect> <!----> <g data-v-6805eed4="" fill="#fc51fa" class="icon-text-wrapper icon-svg-group iconsvg" transform="translate(19.389892578125,77.5999984741211)"><g class="iconsvg-imagesvg" transform="translate(0,0)" mask="url(#665390eb-eeec-4e10-8465-b442cd63e162)"><g><rect fill="#fc51fa" fill-opacity="0" stroke-width="2" x="0" y="0" width="94.80000000000001" height="94.80000000000001" class="image-rect"></rect> <svg filter="url(#colors7940150406)" x="0" y="0" width="94.80000000000001" height="94.80000000000001" filtersec="colorsf8127341426" class="image-svg-svg primary" style="overflow: visible;"><svg xmlns="http://www.w3.org/2000/svg" viewBox="-252.50001525878906 349.4999694824219 95 94.99996948242188"><path d="M-225.1 376.9l9.1-9.1 20.1 20.1 3.7-3.7-20.1-20.1 7.3-7.3 20.1 20.1 3.6-3.7-23.7-23.7-23.8 23.8z" fill="#000000"></path><path d="M-164.8 397l-18.3 18.3-7.3-7.3 9.1-9.2-3.6-3.6-12.8 12.8 11 10.9-7.3 7.3-20.1-20.1-3.7 3.7 20.1 20.1-7.3 7.3-29.2-29.2 18.2-18.3 9.2 9.1 3.6-3.6-12.8-12.8-21.9 21.9-7.3-7.3 9.1-9.1-3.6-3.7-12.8 12.8 47.5 47.5 47.5-47.5-12.8-12.8-3.6 3.7z" fill="#000000"></path></svg></svg> <defs><filter id="colors7940150406"><feColorMatrix type="matrix" values="0 0 0 0 0.984375  0 0 0 0 0.31640625  0 0 0 0 0.9765625  0 0 0 1 0" class="icon-fecolormatrix"></feColorMatrix></filter> <filter id="colorsf8127341426"><feColorMatrix type="matrix" values="0 0 0 0 0.99609375  0 0 0 0 0.99609375  0 0 0 0 0.99609375  0 0 0 1 0" class="icon-fecolormatrix"></feColorMatrix></filter> <filter id="colorsb648310239"><feColorMatrix type="matrix" values="0 0 0 0 0  0 0 0 0 0  0 0 0 0 0  0 0 0 1 0" class="icon-fecolormatrix"></feColorMatrix></filter></defs></g><rect v-gra="id" width="106.80000305175781" height="106.80000305175781" transform="translate(-6, -6)" style="pointer-events:none;" fill="url(#VeMR31v7_oNsMDXgfOw_K)"></rect></g> <g transform="translate(101.80000305175781,22.734323501586914)"><g data-gra="path-name" fill-rule="" class="tp-name iconsvg-namesvg" transform="translate(0,0)" fill="url(#32c13c1d-e678-4c6e-b877-ad3e10fd975c)"><g transform="scale(1.1400000000000001)"><g><path d="M8.58-24.28L20.38-24.28C21.41-24.28 22.28-23.41 22.28-22.38L22.28 0 26.33 0 26.33-22.38C26.33-23.41 27.2-24.28 28.23-24.28L39.98-24.28C41.01-24.28 41.93-23.41 41.93-22.38L41.93 0 45.88 0 45.88-22.38C45.88-25.63 43.24-28.28 39.98-28.28L2.63-28.28 2.63 0 6.68 0 6.68-22.38C6.68-23.41 7.55-24.28 8.58-24.28ZM50.17-22.38L50.17-5.9C50.17-2.68 52.84 0 56.07 0L73.03 0C76.3 0 78.98-2.65 78.98-5.9L78.98-22.38C78.98-25.63 76.3-28.28 73.03-28.28L56.07-28.28C52.84-28.28 50.17-25.6 50.17-22.38ZM74.93-22.38L74.93-5.9C74.93-4.87 74.06-4 73.03-4L56.07-4C55.04-4 54.17-4.87 54.17-5.9L54.17-22.38C54.17-23.41 55.04-24.28 56.07-24.28L73.03-24.28C74.06-24.28 74.93-23.41 74.93-22.38ZM105.75-4L88.78-4C87.75-4 86.88-4.87 86.88-5.9L86.88-28.28 82.88-28.28 82.88-5.9C82.88-2.68 85.56 0 88.78 0L105.75 0C109.01 0 111.7-2.65 111.7-5.9L111.7-28.28 107.7-28.28 107.7-5.9C107.7-4.87 106.78-4 105.75-4ZM116.08-24.28L140.51-24.28 116.08-5.46 116.08 0 144.9 0 144.9-4 120.47-4 144.9-22.82 144.9-28.28 116.08-28.28ZM148.75-22.38L148.75-5.9C148.75-2.68 151.42 0 154.65 0L177.56 0 177.56-4 154.65-4C153.62-4 152.75-4.87 152.75-5.9L152.75-12.14 177.56-12.14 177.56-22.38C177.56-25.63 174.88-28.28 171.61-28.28L154.65-28.28C151.42-28.28 148.75-25.6 148.75-22.38ZM154.65-24.28L171.61-24.28C172.65-24.28 173.52-23.41 173.52-22.38L173.52-16.14 152.75-16.14 152.75-22.38C152.75-23.41 153.62-24.28 154.65-24.28Z" transform="translate(-2.630000114440918, 28.280000686645508)"></path></g> <!----> <!----> <!----> <!----> <!----> <!----> <!----></g></g> <g data-gra="path-slogan" fill-rule="" class="tp-slogan iconsvg-slogansvg" fill="#FFFFFF" transform="translate(1.6132888793945312,38.239200592041016)"><!----> <!----> <g transform="scale(1, 1)"><g transform="scale(1.3600000000000003)"><path d="M0.62-3.94C0.62-3.30 0.71-2.72 0.89-2.21C1.06-1.71 1.31-1.28 1.62-0.93C1.93-0.58 2.30-0.32 2.74-0.13C3.17 0.05 3.64 0.14 4.16 0.14C4.69 0.14 5.17 0.06 5.59-0.11C6.01-0.29 6.34-0.50 6.60-0.77L6.60-4.08L4.02-4.08L4.02-3.25L5.69-3.25L5.69-1.20C5.53-1.06 5.32-0.94 5.07-0.86C4.82-0.77 4.55-0.73 4.27-0.73C3.85-0.73 3.47-0.81 3.15-0.96C2.83-1.11 2.55-1.33 2.33-1.61C2.11-1.89 1.95-2.23 1.83-2.62C1.71-3.02 1.66-3.46 1.66-3.96C1.66-4.45 1.72-4.89 1.84-5.28C1.97-5.67 2.14-6.01 2.36-6.28C2.59-6.56 2.86-6.77 3.18-6.92C3.50-7.07 3.86-7.14 4.26-7.14C4.66-7.14 4.99-7.07 5.25-6.93C5.51-6.79 5.74-6.62 5.94-6.41L6.50-7.04C6.27-7.28 5.97-7.51 5.61-7.71C5.25-7.91 4.79-8.02 4.25-8.02C3.72-8.02 3.24-7.92 2.80-7.73C2.36-7.55 1.97-7.28 1.65-6.92C1.33-6.57 1.07-6.14 0.89-5.64C0.71-5.14 0.62-4.57 0.62-3.94ZM11.78-3.20L9.42-3.20L9.79-4.40C9.94-4.84 10.07-5.28 10.20-5.72C10.33-6.15 10.45-6.60 10.57-7.06L10.62-7.06C10.75-6.60 10.88-6.15 11.00-5.72C11.13-5.28 11.27-4.84 11.41-4.40ZM12.04-2.40L12.78 0L13.85 0L11.18-7.87L10.06-7.87L7.39 0L8.41 0L9.17-2.40ZM14.96-7.87L14.96 0L15.89 0L15.89-4.33C15.89-4.68 15.87-5.07 15.84-5.50C15.81-5.92 15.78-6.31 15.76-6.66L15.80-6.66L16.43-4.91L17.95-0.79L18.52-0.79L20.03-4.91L20.66-6.66L20.71-6.66C20.68-6.31 20.65-5.92 20.62-5.50C20.59-5.07 20.58-4.68 20.58-4.33L20.58 0L21.53 0L21.53-7.87L20.35-7.87L18.84-3.65L18.29-2.04L18.24-2.04L17.66-3.65L16.14-7.87ZM23.69-7.87L23.69 0L28.34 0L28.34-0.85L24.68-0.85L24.68-3.71L27.67-3.71L27.67-4.56L24.68-4.56L24.68-7.03L28.22-7.03L28.22-7.87ZM31.63-7.87L33.30 0L34.49 0L35.65-4.74C35.72-5.04 35.78-5.34 35.85-5.63C35.92-5.93 35.98-6.22 36.05-6.53L36.10-6.53C36.16-6.22 36.22-5.93 36.28-5.63C36.34-5.34 36.41-5.04 36.48-4.74L37.67 0L38.87 0L40.50-7.87L39.54-7.87L38.71-3.59C38.63-3.16 38.56-2.74 38.48-2.32C38.41-1.90 38.34-1.48 38.27-1.04L38.22-1.04C38.12-1.48 38.03-1.90 37.93-2.33C37.84-2.75 37.74-3.17 37.64-3.59L36.55-7.87L35.64-7.87L34.55-3.59C34.46-3.16 34.37-2.74 34.27-2.32C34.18-1.90 34.08-1.48 34.00-1.04L33.95-1.04C33.88-1.48 33.80-1.90 33.72-2.32C33.64-2.73 33.56-3.16 33.49-3.59L32.66-7.87ZM44.70 0.14C45.20 0.14 45.65 0.05 46.06-0.14C46.47-0.34 46.83-0.61 47.13-0.97C47.43-1.32 47.66-1.75 47.83-2.26C47.99-2.77 48.07-3.34 48.07-3.97C48.07-4.60 47.99-5.16 47.83-5.66C47.66-6.16 47.43-6.58 47.13-6.93C46.83-7.28 46.47-7.55 46.06-7.73C45.65-7.92 45.20-8.02 44.70-8.02C44.20-8.02 43.75-7.92 43.34-7.74C42.93-7.56 42.57-7.29 42.28-6.94C41.98-6.59 41.75-6.17 41.59-5.67C41.42-5.17 41.34-4.60 41.34-3.97C41.34-3.34 41.42-2.77 41.59-2.26C41.75-1.75 41.98-1.32 42.28-0.97C42.57-0.61 42.93-0.34 43.34-0.14C43.75 0.05 44.20 0.14 44.70 0.14ZM44.70-0.73C44.35-0.73 44.03-0.81 43.75-0.96C43.46-1.11 43.22-1.33 43.01-1.61C42.81-1.90 42.65-2.24 42.54-2.63C42.43-3.03 42.37-3.48 42.37-3.97C42.37-4.46 42.43-4.90 42.54-5.29C42.65-5.68 42.81-6.02 43.01-6.29C43.22-6.56 43.46-6.77 43.75-6.92C44.03-7.07 44.35-7.14 44.70-7.14C45.05-7.14 45.37-7.07 45.65-6.92C45.94-6.77 46.18-6.56 46.39-6.29C46.59-6.02 46.75-5.68 46.86-5.29C46.97-4.90 47.03-4.46 47.03-3.97C47.03-3.48 46.97-3.03 46.86-2.63C46.75-2.24 46.59-1.90 46.39-1.61C46.18-1.33 45.94-1.11 45.65-0.96C45.37-0.81 45.05-0.73 44.70-0.73ZM50.76-4.14L50.76-7.07L52.08-7.07C52.70-7.07 53.17-6.96 53.50-6.76C53.82-6.55 53.99-6.18 53.99-5.66C53.99-5.15 53.82-4.77 53.50-4.52C53.17-4.27 52.70-4.14 52.08-4.14ZM54.08 0L55.21 0L53.22-3.43C53.76-3.57 54.18-3.82 54.50-4.19C54.82-4.56 54.98-5.05 54.98-5.66C54.98-6.07 54.92-6.42 54.78-6.70C54.64-6.98 54.45-7.20 54.21-7.38C53.97-7.56 53.67-7.68 53.33-7.76C52.99-7.83 52.62-7.87 52.22-7.87L49.76-7.87L49.76 0L50.76 0L50.76-3.32L52.19-3.32ZM56.74-7.87L56.74 0L61.18 0L61.18-0.85L57.73-0.85L57.73-7.87ZM62.57-7.87L62.57 0L64.58 0C65.18 0 65.70-0.09 66.16-0.27C66.61-0.45 67.00-0.71 67.31-1.05C67.62-1.39 67.86-1.81 68.02-2.30C68.18-2.79 68.26-3.35 68.26-3.97C68.26-5.23 67.94-6.19 67.31-6.86C66.68-7.54 65.75-7.87 64.54-7.87ZM64.46-0.82L63.56-0.82L63.56-7.06L64.46-7.06C65.38-7.06 66.07-6.79 66.53-6.26C66.99-5.74 67.22-4.97 67.22-3.97C67.22-2.97 66.99-2.20 66.53-1.64C66.07-1.09 65.38-0.82 64.46-0.82ZM72.37-7.87L72.37 0L73.37 0L73.37-7.87ZM75.53-7.87L75.53 0L76.48 0L76.48-4.12C76.48-4.53 76.46-4.95 76.43-5.36C76.41-5.77 76.38-6.18 76.34-6.58L76.39-6.58L77.24-4.96L80.10 0L81.13 0L81.13-7.87L80.18-7.87L80.18-3.80C80.18-3.39 80.20-2.97 80.23-2.54C80.25-2.11 80.28-1.70 80.30-1.30L80.26-1.30L79.40-2.93L76.56-7.87ZM86.99-3.05L86.99 0L88.00 0L88.00-3.05L90.36-7.87L89.32-7.87L88.31-5.65C88.19-5.36 88.06-5.08 87.92-4.80C87.79-4.52 87.65-4.23 87.52-3.94L87.47-3.94C87.33-4.23 87.20-4.52 87.08-4.80C86.96-5.08 86.84-5.36 86.71-5.65L85.69-7.87L84.62-7.87ZM94.16 0.14C94.66 0.14 95.11 0.05 95.53-0.14C95.94-0.34 96.29-0.61 96.59-0.97C96.89-1.32 97.13-1.75 97.29-2.26C97.45-2.77 97.54-3.34 97.54-3.97C97.54-4.60 97.45-5.16 97.29-5.66C97.13-6.16 96.89-6.58 96.59-6.93C96.29-7.28 95.94-7.55 95.53-7.73C95.11-7.92 94.66-8.02 94.16-8.02C93.67-8.02 93.21-7.92 92.80-7.74C92.39-7.56 92.04-7.29 91.74-6.94C91.44-6.59 91.21-6.17 91.05-5.67C90.89-5.17 90.80-4.60 90.80-3.97C90.80-3.34 90.89-2.77 91.05-2.26C91.21-1.75 91.44-1.32 91.74-0.97C92.04-0.61 92.39-0.34 92.80-0.14C93.21 0.05 93.67 0.14 94.16 0.14ZM94.16-0.73C93.81-0.73 93.49-0.81 93.21-0.96C92.93-1.11 92.68-1.33 92.48-1.61C92.27-1.90 92.12-2.24 92.00-2.63C91.89-3.03 91.84-3.48 91.84-3.97C91.84-4.46 91.89-4.90 92.00-5.29C92.12-5.68 92.27-6.02 92.48-6.29C92.68-6.56 92.93-6.77 93.21-6.92C93.49-7.07 93.81-7.14 94.16-7.14C94.52-7.14 94.83-7.07 95.12-6.92C95.40-6.77 95.65-6.56 95.85-6.29C96.05-6.02 96.21-5.68 96.32-5.29C96.44-4.90 96.49-4.46 96.49-3.97C96.49-3.48 96.44-3.03 96.32-2.63C96.21-2.24 96.05-1.90 95.85-1.61C95.65-1.33 95.40-1.11 95.12-0.96C94.83-0.81 94.52-0.73 94.16-0.73ZM99.19-7.87L99.19-3.25C99.19-2.62 99.26-2.09 99.41-1.66C99.55-1.22 99.75-0.87 100.00-0.61C100.25-0.34 100.55-0.15 100.90-0.03C101.25 0.09 101.62 0.14 102.02 0.14C102.42 0.14 102.80 0.09 103.14-0.03C103.48-0.15 103.78-0.34 104.03-0.61C104.29-0.87 104.48-1.22 104.63-1.66C104.77-2.09 104.84-2.62 104.84-3.25L104.84-7.87L103.88-7.87L103.88-3.23C103.88-2.76 103.84-2.36 103.74-2.04C103.64-1.72 103.51-1.46 103.34-1.27C103.18-1.08 102.98-0.94 102.76-0.86C102.53-0.77 102.29-0.73 102.02-0.73C101.77-0.73 101.53-0.77 101.30-0.86C101.08-0.94 100.89-1.08 100.72-1.27C100.56-1.46 100.43-1.72 100.33-2.04C100.24-2.36 100.19-2.76 100.19-3.23L100.19-7.87ZM107.96-4.14L107.96-7.07L109.28-7.07C109.90-7.07 110.37-6.96 110.70-6.76C111.03-6.55 111.19-6.18 111.19-5.66C111.19-5.15 111.03-4.77 110.70-4.52C110.37-4.27 109.90-4.14 109.28-4.14ZM111.29 0L112.42 0L110.42-3.43C110.96-3.57 111.39-3.82 111.71-4.19C112.03-4.56 112.19-5.05 112.19-5.66C112.19-6.07 112.12-6.42 111.98-6.70C111.85-6.98 111.66-7.20 111.41-7.38C111.17-7.56 110.88-7.68 110.54-7.76C110.20-7.83 109.83-7.87 109.43-7.87L106.97-7.87L106.97 0L107.96 0L107.96-3.32L109.39-3.32ZM115.91-3.94C115.91-3.30 115.99-2.72 116.17-2.21C116.34-1.71 116.58-1.28 116.89-0.93C117.19-0.58 117.56-0.32 117.98-0.13C118.40 0.05 118.86 0.14 119.35 0.14C119.86 0.14 120.30 0.04 120.70-0.16C121.09-0.36 121.44-0.64 121.75-1.00L121.19-1.61C120.93-1.33 120.66-1.11 120.38-0.96C120.09-0.81 119.76-0.73 119.38-0.73C119.00-0.73 118.66-0.81 118.36-0.96C118.06-1.11 117.81-1.33 117.60-1.61C117.39-1.89 117.23-2.23 117.11-2.62C117.00-3.02 116.94-3.46 116.94-3.96C116.94-4.45 117-4.89 117.12-5.28C117.24-5.67 117.41-6.01 117.62-6.28C117.84-6.56 118.10-6.77 118.40-6.92C118.71-7.07 119.05-7.14 119.42-7.14C119.76-7.14 120.05-7.07 120.31-6.94C120.56-6.81 120.79-6.63 121.00-6.41L121.56-7.04C121.33-7.30 121.03-7.53 120.67-7.72C120.31-7.92 119.89-8.02 119.41-8.02C118.91-8.02 118.44-7.92 118.01-7.73C117.59-7.55 117.22-7.28 116.90-6.92C116.59-6.57 116.35-6.14 116.17-5.64C116.00-5.14 115.91-4.57 115.91-3.94ZM123.22-7.87L123.22 0L127.66 0L127.66-0.85L124.21-0.85L124.21-7.87ZM129.05-7.87L129.05 0L130.04 0L130.04-7.87ZM131.75-3.94C131.75-3.30 131.83-2.72 132.01-2.21C132.18-1.71 132.42-1.28 132.73-0.93C133.03-0.58 133.40-0.32 133.82-0.13C134.24 0.05 134.70 0.14 135.19 0.14C135.70 0.14 136.14 0.04 136.54-0.16C136.93-0.36 137.28-0.64 137.59-1.00L137.03-1.61C136.77-1.33 136.50-1.11 136.22-0.96C135.93-0.81 135.60-0.73 135.22-0.73C134.84-0.73 134.50-0.81 134.20-0.96C133.90-1.11 133.65-1.33 133.44-1.61C133.23-1.89 133.07-2.23 132.95-2.62C132.84-3.02 132.78-3.46 132.78-3.96C132.78-4.45 132.84-4.89 132.96-5.28C133.08-5.67 133.25-6.01 133.46-6.28C133.68-6.56 133.94-6.77 134.24-6.92C134.55-7.07 134.89-7.14 135.26-7.14C135.60-7.14 135.89-7.07 136.15-6.94C136.40-6.81 136.63-6.63 136.84-6.41L137.40-7.04C137.17-7.30 136.87-7.53 136.51-7.72C136.15-7.92 135.73-8.02 135.25-8.02C134.75-8.02 134.28-7.92 133.85-7.73C133.43-7.55 133.06-7.28 132.74-6.92C132.43-6.57 132.19-6.14 132.01-5.64C131.84-5.14 131.75-4.57 131.75-3.94ZM139.06-7.87L139.06 0L140.05 0L140.05-2.50L141.41-4.09L143.76 0L144.88 0L142.03-4.87L144.49-7.87L143.36-7.87L140.09-3.92L140.05-3.92L140.05-7.87Z" transform="translate(-0.624, 8.016)"></path></g></g></g></g></g><defs v-gra="od"><linearGradient x1="0" y1="1" x2="0" y2="0" id="32c13c1d-e678-4c6e-b877-ad3e10fd975c"><stop offset="0%" stop-color="#fc51fa"></stop><stop offset="50%" stop-color="#fdaf42"></stop><stop offset="100%" stop-color="#2cd4ff"></stop></linearGradient><filter id="42443b3f1de60f6b6fd3b6a9844b4764" filterUnits="objectBoundingBox"><feColorMatrix type="matrix" values="0 0 0 0 0.99609375  0 0 0 0 0.99609375  0 0 0 0 0.99609375  0 0 0 1 0"></feColorMatrix></filter></defs><defs v-gra="id"><filter id="befd26d6-2c60-4f37-9b21-8c029b98ac07" filterUnits="userSpaceOnUse"><feColorMatrix type="matrix" values="0 0 0 0 0.99609375  0 0 0 0 0.99609375  0 0 0 0 0.99609375  0 0 0 1 0"></feColorMatrix></filter><linearGradient x1="0" y1="1" x2="0" y2="0" id="VeMR31v7_oNsMDXgfOw_K"><stop offset="0%" stop-color="#fc51fa"></stop><stop offset="50%" stop-color="#fdaf42"></stop><stop offset="100%" stop-color="#2cd4ff"></stop></linearGradient><filter id="42443b3f1de60f6b6fd3b6a9844b4764" filterUnits="objectBoundingBox"><feColorMatrix type="matrix" values="0 0 0 0 0.99609375  0 0 0 0 0.99609375  0 0 0 0 0.99609375  0 0 0 1 0"></feColorMatrix></filter></defs><mask v-gra="im" id="665390eb-eeec-4e10-8465-b442cd63e162"><g class="iconsvg-imagesvg" filter="url(#befd26d6-2c60-4f37-9b21-8c029b98ac07)"><g><rect fill="#fc51fa" fill-opacity="0" stroke-width="2" x="0" y="0" width="94.80000000000001" height="94.80000000000001" class="image-rect"></rect> <svg x="0" y="0" width="94.80000000000001" height="94.80000000000001" filtersec="colorsf8127341426" class="image-svg-svg primary" style="overflow: visible;"><svg xmlns="http://www.w3.org/2000/svg" viewBox="-252.50001525878906 349.4999694824219 95 94.99996948242188"><path d="M-225.1 376.9l9.1-9.1 20.1 20.1 3.7-3.7-20.1-20.1 7.3-7.3 20.1 20.1 3.6-3.7-23.7-23.7-23.8 23.8z" fill="#000000"></path><path d="M-164.8 397l-18.3 18.3-7.3-7.3 9.1-9.2-3.6-3.6-12.8 12.8 11 10.9-7.3 7.3-20.1-20.1-3.7 3.7 20.1 20.1-7.3 7.3-29.2-29.2 18.2-18.3 9.2 9.1 3.6-3.6-12.8-12.8-21.9 21.9-7.3-7.3 9.1-9.1-3.6-3.7-12.8 12.8 47.5 47.5 47.5-47.5-12.8-12.8-3.6 3.7z" fill="#000000"></path></svg></svg> <defs><filter id="colors7940150406"><feColorMatrix type="matrix" values="0 0 0 0 0.984375  0 0 0 0 0.31640625  0 0 0 0 0.9765625  0 0 0 1 0" class="icon-fecolormatrix"></feColorMatrix></filter> <filter id="colorsf8127341426"><feColorMatrix type="matrix" values="0 0 0 0 0.99609375  0 0 0 0 0.99609375  0 0 0 0 0.99609375  0 0 0 1 0" class="icon-fecolormatrix"></feColorMatrix></filter> <filter id="colorsb648310239"><feColorMatrix type="matrix" values="0 0 0 0 0  0 0 0 0 0  0 0 0 0 0  0 0 0 1 0" class="icon-fecolormatrix"></feColorMatrix></filter></defs></g></g></mask></svg>