<svg data-v-6805eed4="" version="1.0" xmlns="http://www.w3.org/2000/svg" xmlns:xlink="http://www.w3.org/1999/xlink" width="100%" height="100%" viewBox="0 0 340.000000 250.000000" preserveAspectRatio="xMidYMid meet" color-interpolation-filters="sRGB" style="margin: auto;"> <rect data-v-6805eed4="" x="0" y="0" width="100%" height="100%" fill="#00000000" fill-opacity="1" class="background"></rect> <!----> <g data-v-6805eed4="" class="iconmbgsvg" transform="translate(95.00543785095215,79.6923599243164)"><g fill="#fc51fa" hollow-target="textRect"><g mask="url(#95d7be03-dbf1-4e3a-bbba-92da9701b516)"><g><rect fill="#fc51fa" fill-opacity="0" stroke-width="2" x="0" y="0" width="150" height="90.61527773582625" class="image-rect"></rect> <svg filter="url(#colors4550370840)" x="0" y="0" width="150" height="90.61527773582625" filtersec="colorsf4214536580" class="image-svg-svg primary" style="overflow: visible;"><svg xmlns="http://www.w3.org/2000/svg" xmlns:xlink="http://www.w3.org/1999/xlink" version="1.1" x="0px" y="0px" viewBox="1.9851303100585938 6 20.029739379882812 12.100000381469727" xml:space="preserve"><title>game</title><path d="M21.7,11.3L20.4,8c-0.4-1.2-1.5-2-2.8-2H6.4C5.1,6,4,6.8,3.6,8l-1.3,3.3c-0.9,2.4,0.2,5.1,2.4,6.2l0.8,0.4  c0.5,0.2,1.1,0.1,1.3-0.4l1.4-2.9C8.5,14.2,8.9,14,9.2,14h5.5c0.4,0,0.7,0.2,0.9,0.6l1.5,2.9c0.2,0.3,0.5,0.5,0.9,0.6  c0.2,0,0.3,0,0.5-0.1l0.8-0.4C21.5,16.4,22.6,13.7,21.7,11.3z M18.5,15.7l-1-2c-0.5-1-1.6-1.7-2.7-1.7H9.2c-1.1,0-2.2,0.6-2.7,1.7  l-1,2c-1.3-0.7-1.9-2.3-1.3-3.7l1.3-3.4C5.6,8.3,6,8,6.4,8h11.2c0.4,0,0.8,0.3,0.9,0.6l1.2,3.4C20.3,13.4,19.7,14.9,18.5,15.7z"></path></svg></svg> <defs><filter id="colors4550370840"><feColorMatrix type="matrix" values="0 0 0 0 0.984375  0 0 0 0 0.31640625  0 0 0 0 0.9765625  0 0 0 1 0" class="icon-fecolormatrix"></feColorMatrix></filter> <filter id="colorsf4214536580"><feColorMatrix type="matrix" values="0 0 0 0 0.99609375  0 0 0 0 0.99609375  0 0 0 0 0.99609375  0 0 0 1 0" class="icon-fecolormatrix"></feColorMatrix></filter> <filter id="colorsb9893044097"><feColorMatrix type="matrix" values="0 0 0 0 0  0 0 0 0 0  0 0 0 0 0  0 0 0 1 0" class="icon-fecolormatrix"></feColorMatrix></filter></defs></g><rect v-gra="id" width="162" height="102.61528015136719" transform="translate(-6, -6)" style="pointer-events:none;" fill="url(#Iv4Rg8WnShk1q9E3H-bar)"></rect></g> <g transform="translate(6.79949951171875,21.22905731201172)"><g data-gra="path-name" fill-rule="" class="tp-name" transform="translate(0,0)" fill="url(#442841bf-0283-4c46-82b2-21e3509f4a33)"><g transform="scale(1.1400000000000001)"><g><path d="M20.62 0L15.55 0 15.55-18.97Q15.55-20.23 14.75-21.13 13.94-22.04 12.29-22.04L12.29-22.04 12.29-27.01Q14.38-27.01 15.72-26.38 17.06-25.74 18.09-24.67L18.09-24.67Q19.06-25.74 20.4-26.38 21.74-27.01 23.84-27.01L23.84-27.01 23.84-22.04Q22.18-22.04 21.4-21.13 20.62-20.23 20.62-18.97L20.62-18.97 20.62 0ZM6.92 0L1.85 0 1.85-19.6Q1.85-20.62 2.34-21.87 2.83-23.11 3.83-24.3 4.83-25.5 6.36-26.25 7.9-27.01 10.04-27.01L10.04-27.01 10.04-22.04Q8.43-22.04 7.68-21.09 6.92-20.14 6.92-18.97L6.92-18.97 6.92 0ZM34.32 0L29.2 0 29.2-18.97Q29.2-20.33 28.42-21.18 27.64-22.04 25.99-22.04L25.99-22.04 25.99-27.01Q28.13-27.01 29.72-26.23 31.3-25.45 32.32-24.26 33.35-23.06 33.84-21.82 34.32-20.57 34.32-19.6L34.32-19.6 34.32 0ZM46.56-4.83L46.56 0.05Q44.71 0.05 43.15-0.61 41.59-1.27 40.44-2.44 39.3-3.61 38.66-5.09 38.03-6.58 38.03-8.24L38.03-8.24 38.03-18.43Q38.03-20.09 38.61-21.62 39.2-23.16 40.32-24.35 41.44-25.55 43-26.23 44.56-26.91 46.56-26.91L46.56-26.91 46.56-22.09Q45.39-22.09 44.61-21.5 43.83-20.92 43.42-20.01 43-19.11 43-18.04L43-18.04 43-8.63Q43-7.7 43.44-6.83 43.88-5.95 44.68-5.39 45.49-4.83 46.56-4.83L46.56-4.83ZM48.85 0.05L48.85 0.05 48.85-4.83Q49.92-4.83 50.7-5.39 51.48-5.95 51.9-6.8 52.31-7.65 52.31-8.58L52.31-8.58 52.31-18.04Q52.31-19.06 51.92-19.99 51.53-20.92 50.73-21.5 49.92-22.09 48.85-22.09L48.85-22.09 48.85-26.91Q50.8-26.91 52.36-26.23 53.92-25.55 55.02-24.35 56.12-23.16 56.7-21.62 57.29-20.09 57.29-18.43L57.29-18.43 57.29-8.24Q57.29-6.58 56.65-5.07 56.02-3.56 54.87-2.41 53.73-1.27 52.19-0.61 50.66 0.05 48.85 0.05ZM71.42 0.24L71.42 0.24 71.42-4.73Q72.59-4.73 73.4-5.22 74.2-5.7 74.59-6.39 74.98-7.07 74.98-7.75L74.98-7.75 74.98-26.91 80.1-26.91 80.1-7.17Q80.1-6.19 79.57-4.95 79.03-3.71 77.93-2.51 76.84-1.32 75.2-0.54 73.57 0.24 71.42 0.24ZM69.28-4.73L69.28 0.24Q67.13 0.24 65.5-0.51 63.87-1.27 62.8-2.44 61.72-3.61 61.19-4.88 60.65-6.14 60.65-7.12L60.65-7.12 60.65-26.91 65.72-26.91 65.72-7.75Q65.72-7.07 66.13-6.39 66.55-5.7 67.33-5.22 68.11-4.73 69.28-4.73L69.28-4.73ZM98.82 0L83.42 0 83.42-4.88 93.17-22.04 83.42-22.04 83.42-26.91 98.82-26.91 98.82-22.13 89.27-4.88 98.82-4.88 98.82 0ZM110.62-4.63L110.62 0Q108.53 0 106.94-0.78 105.36-1.56 104.31-2.73 103.26-3.9 102.72-5.14 102.19-6.39 102.19-7.31L102.19-7.31 102.19-19.7Q102.19-20.62 102.72-21.84 103.26-23.06 104.33-24.23 105.41-25.4 106.97-26.16 108.53-26.91 110.57-26.91L110.57-26.91 110.57-22.18Q109.55-22.18 108.82-21.7 108.09-21.21 107.65-20.53 107.21-19.84 107.21-19.26L107.21-19.26 107.21-16.28 116.77-16.28 116.77-19.21Q116.77-20.23 116.21-20.89 115.64-21.55 114.79-21.89 113.94-22.23 113.06-22.23L113.06-22.23 113.06-26.91Q115.01-26.91 116.94-25.99 118.86-25.06 120.15-23.45 121.45-21.84 121.45-19.75L121.45-19.75 121.45-11.46 107.21-11.46 107.21-7.31Q107.21-6.83 107.6-6.19 107.99-5.56 108.77-5.09 109.55-4.63 110.62-4.63L110.62-4.63ZM113.06 0L113.06 0 113.06-4.63Q114.33-4.63 115.21-5.12 116.08-5.61 116.62-6.34 117.16-7.07 117.35-7.8L117.35-7.8 121.5-6.24Q121.15-4.68 120.01-3.24 118.86-1.8 117.11-0.9 115.35 0 113.06 0Z" transform="translate(-1.850000023841858, 27.010000228881836)"></path></g> <!----> <!----> <!----> <!----> <!----> <!----> <!----></g></g> <g data-gra="path-slogan" fill-rule="" class="tp-slogan" fill="#FFFFFF" transform="translate(-29.89630889892578,37.06500053405762)"><!----> <!----> <g transform="scale(1, 1)"><g transform="scale(1.3600000000000003)"><path d="M0.62-3.94C0.62-3.30 0.71-2.72 0.89-2.21C1.06-1.71 1.31-1.28 1.62-0.93C1.93-0.58 2.30-0.32 2.74-0.13C3.17 0.05 3.64 0.14 4.16 0.14C4.69 0.14 5.17 0.06 5.59-0.11C6.01-0.29 6.34-0.50 6.60-0.77L6.60-4.08L4.02-4.08L4.02-3.25L5.69-3.25L5.69-1.20C5.53-1.06 5.32-0.94 5.07-0.86C4.82-0.77 4.55-0.73 4.27-0.73C3.85-0.73 3.47-0.81 3.15-0.96C2.83-1.11 2.55-1.33 2.33-1.61C2.11-1.89 1.95-2.23 1.83-2.62C1.71-3.02 1.66-3.46 1.66-3.96C1.66-4.45 1.72-4.89 1.84-5.28C1.97-5.67 2.14-6.01 2.36-6.28C2.59-6.56 2.86-6.77 3.18-6.92C3.50-7.07 3.86-7.14 4.26-7.14C4.66-7.14 4.99-7.07 5.25-6.93C5.51-6.79 5.74-6.62 5.94-6.41L6.50-7.04C6.27-7.28 5.97-7.51 5.61-7.71C5.25-7.91 4.79-8.02 4.25-8.02C3.72-8.02 3.24-7.92 2.80-7.73C2.36-7.55 1.97-7.28 1.65-6.92C1.33-6.57 1.07-6.14 0.89-5.64C0.71-5.14 0.62-4.57 0.62-3.94ZM11.78-3.20L9.42-3.20L9.79-4.40C9.94-4.84 10.07-5.28 10.20-5.72C10.33-6.15 10.45-6.60 10.57-7.06L10.62-7.06C10.75-6.60 10.88-6.15 11.00-5.72C11.13-5.28 11.27-4.84 11.41-4.40ZM12.04-2.40L12.78 0L13.85 0L11.18-7.87L10.06-7.87L7.39 0L8.41 0L9.17-2.40ZM14.96-7.87L14.96 0L15.89 0L15.89-4.33C15.89-4.68 15.87-5.07 15.84-5.50C15.81-5.92 15.78-6.31 15.76-6.66L15.80-6.66L16.43-4.91L17.95-0.79L18.52-0.79L20.03-4.91L20.66-6.66L20.71-6.66C20.68-6.31 20.65-5.92 20.62-5.50C20.59-5.07 20.58-4.68 20.58-4.33L20.58 0L21.53 0L21.53-7.87L20.35-7.87L18.84-3.65L18.29-2.04L18.24-2.04L17.66-3.65L16.14-7.87ZM23.69-7.87L23.69 0L28.34 0L28.34-0.85L24.68-0.85L24.68-3.71L27.67-3.71L27.67-4.56L24.68-4.56L24.68-7.03L28.22-7.03L28.22-7.87ZM31.63-7.87L33.30 0L34.49 0L35.65-4.74C35.72-5.04 35.78-5.34 35.85-5.63C35.92-5.93 35.98-6.22 36.05-6.53L36.10-6.53C36.16-6.22 36.22-5.93 36.28-5.63C36.34-5.34 36.41-5.04 36.48-4.74L37.67 0L38.87 0L40.50-7.87L39.54-7.87L38.71-3.59C38.63-3.16 38.56-2.74 38.48-2.32C38.41-1.90 38.34-1.48 38.27-1.04L38.22-1.04C38.12-1.48 38.03-1.90 37.93-2.33C37.84-2.75 37.74-3.17 37.64-3.59L36.55-7.87L35.64-7.87L34.55-3.59C34.46-3.16 34.37-2.74 34.27-2.32C34.18-1.90 34.08-1.48 34.00-1.04L33.95-1.04C33.88-1.48 33.80-1.90 33.72-2.32C33.64-2.73 33.56-3.16 33.49-3.59L32.66-7.87ZM44.70 0.14C45.20 0.14 45.65 0.05 46.06-0.14C46.47-0.34 46.83-0.61 47.13-0.97C47.43-1.32 47.66-1.75 47.83-2.26C47.99-2.77 48.07-3.34 48.07-3.97C48.07-4.60 47.99-5.16 47.83-5.66C47.66-6.16 47.43-6.58 47.13-6.93C46.83-7.28 46.47-7.55 46.06-7.73C45.65-7.92 45.20-8.02 44.70-8.02C44.20-8.02 43.75-7.92 43.34-7.74C42.93-7.56 42.57-7.29 42.28-6.94C41.98-6.59 41.75-6.17 41.59-5.67C41.42-5.17 41.34-4.60 41.34-3.97C41.34-3.34 41.42-2.77 41.59-2.26C41.75-1.75 41.98-1.32 42.28-0.97C42.57-0.61 42.93-0.34 43.34-0.14C43.75 0.05 44.20 0.14 44.70 0.14ZM44.70-0.73C44.35-0.73 44.03-0.81 43.75-0.96C43.46-1.11 43.22-1.33 43.01-1.61C42.81-1.90 42.65-2.24 42.54-2.63C42.43-3.03 42.37-3.48 42.37-3.97C42.37-4.46 42.43-4.90 42.54-5.29C42.65-5.68 42.81-6.02 43.01-6.29C43.22-6.56 43.46-6.77 43.75-6.92C44.03-7.07 44.35-7.14 44.70-7.14C45.05-7.14 45.37-7.07 45.65-6.92C45.94-6.77 46.18-6.56 46.39-6.29C46.59-6.02 46.75-5.68 46.86-5.29C46.97-4.90 47.03-4.46 47.03-3.97C47.03-3.48 46.97-3.03 46.86-2.63C46.75-2.24 46.59-1.90 46.39-1.61C46.18-1.33 45.94-1.11 45.65-0.96C45.37-0.81 45.05-0.73 44.70-0.73ZM50.76-4.14L50.76-7.07L52.08-7.07C52.70-7.07 53.17-6.96 53.50-6.76C53.82-6.55 53.99-6.18 53.99-5.66C53.99-5.15 53.82-4.77 53.50-4.52C53.17-4.27 52.70-4.14 52.08-4.14ZM54.08 0L55.21 0L53.22-3.43C53.76-3.57 54.18-3.82 54.50-4.19C54.82-4.56 54.98-5.05 54.98-5.66C54.98-6.07 54.92-6.42 54.78-6.70C54.64-6.98 54.45-7.20 54.21-7.38C53.97-7.56 53.67-7.68 53.33-7.76C52.99-7.83 52.62-7.87 52.22-7.87L49.76-7.87L49.76 0L50.76 0L50.76-3.32L52.19-3.32ZM56.74-7.87L56.74 0L61.18 0L61.18-0.85L57.73-0.85L57.73-7.87ZM62.57-7.87L62.57 0L64.58 0C65.18 0 65.70-0.09 66.16-0.27C66.61-0.45 67.00-0.71 67.31-1.05C67.62-1.39 67.86-1.81 68.02-2.30C68.18-2.79 68.26-3.35 68.26-3.97C68.26-5.23 67.94-6.19 67.31-6.86C66.68-7.54 65.75-7.87 64.54-7.87ZM64.46-0.82L63.56-0.82L63.56-7.06L64.46-7.06C65.38-7.06 66.07-6.79 66.53-6.26C66.99-5.74 67.22-4.97 67.22-3.97C67.22-2.97 66.99-2.20 66.53-1.64C66.07-1.09 65.38-0.82 64.46-0.82ZM72.37-7.87L72.37 0L73.37 0L73.37-7.87ZM75.53-7.87L75.53 0L76.48 0L76.48-4.12C76.48-4.53 76.46-4.95 76.43-5.36C76.41-5.77 76.38-6.18 76.34-6.58L76.39-6.58L77.24-4.96L80.10 0L81.13 0L81.13-7.87L80.18-7.87L80.18-3.80C80.18-3.39 80.20-2.97 80.23-2.54C80.25-2.11 80.28-1.70 80.30-1.30L80.26-1.30L79.40-2.93L76.56-7.87ZM86.99-3.05L86.99 0L88.00 0L88.00-3.05L90.36-7.87L89.32-7.87L88.31-5.65C88.19-5.36 88.06-5.08 87.92-4.80C87.79-4.52 87.65-4.23 87.52-3.94L87.47-3.94C87.33-4.23 87.20-4.52 87.08-4.80C86.96-5.08 86.84-5.36 86.71-5.65L85.69-7.87L84.62-7.87ZM94.16 0.14C94.66 0.14 95.11 0.05 95.53-0.14C95.94-0.34 96.29-0.61 96.59-0.97C96.89-1.32 97.13-1.75 97.29-2.26C97.45-2.77 97.54-3.34 97.54-3.97C97.54-4.60 97.45-5.16 97.29-5.66C97.13-6.16 96.89-6.58 96.59-6.93C96.29-7.28 95.94-7.55 95.53-7.73C95.11-7.92 94.66-8.02 94.16-8.02C93.67-8.02 93.21-7.92 92.80-7.74C92.39-7.56 92.04-7.29 91.74-6.94C91.44-6.59 91.21-6.17 91.05-5.67C90.89-5.17 90.80-4.60 90.80-3.97C90.80-3.34 90.89-2.77 91.05-2.26C91.21-1.75 91.44-1.32 91.74-0.97C92.04-0.61 92.39-0.34 92.80-0.14C93.21 0.05 93.67 0.14 94.16 0.14ZM94.16-0.73C93.81-0.73 93.49-0.81 93.21-0.96C92.93-1.11 92.68-1.33 92.48-1.61C92.27-1.90 92.12-2.24 92.00-2.63C91.89-3.03 91.84-3.48 91.84-3.97C91.84-4.46 91.89-4.90 92.00-5.29C92.12-5.68 92.27-6.02 92.48-6.29C92.68-6.56 92.93-6.77 93.21-6.92C93.49-7.07 93.81-7.14 94.16-7.14C94.52-7.14 94.83-7.07 95.12-6.92C95.40-6.77 95.65-6.56 95.85-6.29C96.05-6.02 96.21-5.68 96.32-5.29C96.44-4.90 96.49-4.46 96.49-3.97C96.49-3.48 96.44-3.03 96.32-2.63C96.21-2.24 96.05-1.90 95.85-1.61C95.65-1.33 95.40-1.11 95.12-0.96C94.83-0.81 94.52-0.73 94.16-0.73ZM99.19-7.87L99.19-3.25C99.19-2.62 99.26-2.09 99.41-1.66C99.55-1.22 99.75-0.87 100.00-0.61C100.25-0.34 100.55-0.15 100.90-0.03C101.25 0.09 101.62 0.14 102.02 0.14C102.42 0.14 102.80 0.09 103.14-0.03C103.48-0.15 103.78-0.34 104.03-0.61C104.29-0.87 104.48-1.22 104.63-1.66C104.77-2.09 104.84-2.62 104.84-3.25L104.84-7.87L103.88-7.87L103.88-3.23C103.88-2.76 103.84-2.36 103.74-2.04C103.64-1.72 103.51-1.46 103.34-1.27C103.18-1.08 102.98-0.94 102.76-0.86C102.53-0.77 102.29-0.73 102.02-0.73C101.77-0.73 101.53-0.77 101.30-0.86C101.08-0.94 100.89-1.08 100.72-1.27C100.56-1.46 100.43-1.72 100.33-2.04C100.24-2.36 100.19-2.76 100.19-3.23L100.19-7.87ZM107.96-4.14L107.96-7.07L109.28-7.07C109.90-7.07 110.37-6.96 110.70-6.76C111.03-6.55 111.19-6.18 111.19-5.66C111.19-5.15 111.03-4.77 110.70-4.52C110.37-4.27 109.90-4.14 109.28-4.14ZM111.29 0L112.42 0L110.42-3.43C110.96-3.57 111.39-3.82 111.71-4.19C112.03-4.56 112.19-5.05 112.19-5.66C112.19-6.07 112.12-6.42 111.98-6.70C111.85-6.98 111.66-7.20 111.41-7.38C111.17-7.56 110.88-7.68 110.54-7.76C110.20-7.83 109.83-7.87 109.43-7.87L106.97-7.87L106.97 0L107.96 0L107.96-3.32L109.39-3.32ZM115.91-3.94C115.91-3.30 115.99-2.72 116.17-2.21C116.34-1.71 116.58-1.28 116.89-0.93C117.19-0.58 117.56-0.32 117.98-0.13C118.40 0.05 118.86 0.14 119.35 0.14C119.86 0.14 120.30 0.04 120.70-0.16C121.09-0.36 121.44-0.64 121.75-1.00L121.19-1.61C120.93-1.33 120.66-1.11 120.38-0.96C120.09-0.81 119.76-0.73 119.38-0.73C119.00-0.73 118.66-0.81 118.36-0.96C118.06-1.11 117.81-1.33 117.60-1.61C117.39-1.89 117.23-2.23 117.11-2.62C117.00-3.02 116.94-3.46 116.94-3.96C116.94-4.45 117-4.89 117.12-5.28C117.24-5.67 117.41-6.01 117.62-6.28C117.84-6.56 118.10-6.77 118.40-6.92C118.71-7.07 119.05-7.14 119.42-7.14C119.76-7.14 120.05-7.07 120.31-6.94C120.56-6.81 120.79-6.63 121.00-6.41L121.56-7.04C121.33-7.30 121.03-7.53 120.67-7.72C120.31-7.92 119.89-8.02 119.41-8.02C118.91-8.02 118.44-7.92 118.01-7.73C117.59-7.55 117.22-7.28 116.90-6.92C116.59-6.57 116.35-6.14 116.17-5.64C116.00-5.14 115.91-4.57 115.91-3.94ZM123.22-7.87L123.22 0L127.66 0L127.66-0.85L124.21-0.85L124.21-7.87ZM129.05-7.87L129.05 0L130.04 0L130.04-7.87ZM131.75-3.94C131.75-3.30 131.83-2.72 132.01-2.21C132.18-1.71 132.42-1.28 132.73-0.93C133.03-0.58 133.40-0.32 133.82-0.13C134.24 0.05 134.70 0.14 135.19 0.14C135.70 0.14 136.14 0.04 136.54-0.16C136.93-0.36 137.28-0.64 137.59-1.00L137.03-1.61C136.77-1.33 136.50-1.11 136.22-0.96C135.93-0.81 135.60-0.73 135.22-0.73C134.84-0.73 134.50-0.81 134.20-0.96C133.90-1.11 133.65-1.33 133.44-1.61C133.23-1.89 133.07-2.23 132.95-2.62C132.84-3.02 132.78-3.46 132.78-3.96C132.78-4.45 132.84-4.89 132.96-5.28C133.08-5.67 133.25-6.01 133.46-6.28C133.68-6.56 133.94-6.77 134.24-6.92C134.55-7.07 134.89-7.14 135.26-7.14C135.60-7.14 135.89-7.07 136.15-6.94C136.40-6.81 136.63-6.63 136.84-6.41L137.40-7.04C137.17-7.30 136.87-7.53 136.51-7.72C136.15-7.92 135.73-8.02 135.25-8.02C134.75-8.02 134.28-7.92 133.85-7.73C133.43-7.55 133.06-7.28 132.74-6.92C132.43-6.57 132.19-6.14 132.01-5.64C131.84-5.14 131.75-4.57 131.75-3.94ZM139.06-7.87L139.06 0L140.05 0L140.05-2.50L141.41-4.09L143.76 0L144.88 0L142.03-4.87L144.49-7.87L143.36-7.87L140.09-3.92L140.05-3.92L140.05-7.87Z" transform="translate(-0.624, 8.016)"></path></g></g></g></g></g></g><mask id="406dfe07-4306-4f1c-a773-1e218bea5235"><g fill="white"><g><rect fill-opacity="1" stroke-width="2" x="0" y="0" width="150" height="90.61527773582625" class="image-rect"></rect> <svg x="0" y="0" width="150" height="90.61527773582625" class="image-svg-svg primary" style="overflow: visible;" filter="url(#colorsf4214536580)"><svg xmlns="http://www.w3.org/2000/svg" xmlns:xlink="http://www.w3.org/1999/xlink" version="1.1" x="0px" y="0px" viewBox="1.9851303100585938 6 20.029739379882812 12.100000381469727" xml:space="preserve"><title>game</title><path d="M21.7,11.3L20.4,8c-0.4-1.2-1.5-2-2.8-2H6.4C5.1,6,4,6.8,3.6,8l-1.3,3.3c-0.9,2.4,0.2,5.1,2.4,6.2l0.8,0.4  c0.5,0.2,1.1,0.1,1.3-0.4l1.4-2.9C8.5,14.2,8.9,14,9.2,14h5.5c0.4,0,0.7,0.2,0.9,0.6l1.5,2.9c0.2,0.3,0.5,0.5,0.9,0.6  c0.2,0,0.3,0,0.5-0.1l0.8-0.4C21.5,16.4,22.6,13.7,21.7,11.3z M18.5,15.7l-1-2c-0.5-1-1.6-1.7-2.7-1.7H9.2c-1.1,0-2.2,0.6-2.7,1.7  l-1,2c-1.3-0.7-1.9-2.3-1.3-3.7l1.3-3.4C5.6,8.3,6,8,6.4,8h11.2c0.4,0,0.8,0.3,0.9,0.6l1.2,3.4C20.3,13.4,19.7,14.9,18.5,15.7z"></path></svg></svg> <defs>  </defs></g></g> <g transform="translate(6.79949951171875,21.22905731201172)"><rect fill="black" fill-opacity="1" x="-3.5" y="-3.5" width="143.4010009765625" height="38.06500053405762"></rect><rect fill="black" fill-opacity="1" x="-3.5" y="-3.5" transform="translate(-29.90174891008064,37.06500053405762)" width="203.19361877441406" height="18.09760093688965"></rect></g><g transform="translate(6.79949951171875,21.22905731201172)" fill="black"><g data-gra="path-name" fill-rule="" class="tp-name" transform="translate(0,0)"><g transform="scale(1.1400000000000001)"><g><path d="M20.62 0L15.55 0 15.55-18.97Q15.55-20.23 14.75-21.13 13.94-22.04 12.29-22.04L12.29-22.04 12.29-27.01Q14.38-27.01 15.72-26.38 17.06-25.74 18.09-24.67L18.09-24.67Q19.06-25.74 20.4-26.38 21.74-27.01 23.84-27.01L23.84-27.01 23.84-22.04Q22.18-22.04 21.4-21.13 20.62-20.23 20.62-18.97L20.62-18.97 20.62 0ZM6.92 0L1.85 0 1.85-19.6Q1.85-20.62 2.34-21.87 2.83-23.11 3.83-24.3 4.83-25.5 6.36-26.25 7.9-27.01 10.04-27.01L10.04-27.01 10.04-22.04Q8.43-22.04 7.68-21.09 6.92-20.14 6.92-18.97L6.92-18.97 6.92 0ZM34.32 0L29.2 0 29.2-18.97Q29.2-20.33 28.42-21.18 27.64-22.04 25.99-22.04L25.99-22.04 25.99-27.01Q28.13-27.01 29.72-26.23 31.3-25.45 32.32-24.26 33.35-23.06 33.84-21.82 34.32-20.57 34.32-19.6L34.32-19.6 34.32 0ZM46.56-4.83L46.56 0.05Q44.71 0.05 43.15-0.61 41.59-1.27 40.44-2.44 39.3-3.61 38.66-5.09 38.03-6.58 38.03-8.24L38.03-8.24 38.03-18.43Q38.03-20.09 38.61-21.62 39.2-23.16 40.32-24.35 41.44-25.55 43-26.23 44.56-26.91 46.56-26.91L46.56-26.91 46.56-22.09Q45.39-22.09 44.61-21.5 43.83-20.92 43.42-20.01 43-19.11 43-18.04L43-18.04 43-8.63Q43-7.7 43.44-6.83 43.88-5.95 44.68-5.39 45.49-4.83 46.56-4.83L46.56-4.83ZM48.85 0.05L48.85 0.05 48.85-4.83Q49.92-4.83 50.7-5.39 51.48-5.95 51.9-6.8 52.31-7.65 52.31-8.58L52.31-8.58 52.31-18.04Q52.31-19.06 51.92-19.99 51.53-20.92 50.73-21.5 49.92-22.09 48.85-22.09L48.85-22.09 48.85-26.91Q50.8-26.91 52.36-26.23 53.92-25.55 55.02-24.35 56.12-23.16 56.7-21.62 57.29-20.09 57.29-18.43L57.29-18.43 57.29-8.24Q57.29-6.58 56.65-5.07 56.02-3.56 54.87-2.41 53.73-1.27 52.19-0.61 50.66 0.05 48.85 0.05ZM71.42 0.24L71.42 0.24 71.42-4.73Q72.59-4.73 73.4-5.22 74.2-5.7 74.59-6.39 74.98-7.07 74.98-7.75L74.98-7.75 74.98-26.91 80.1-26.91 80.1-7.17Q80.1-6.19 79.57-4.95 79.03-3.71 77.93-2.51 76.84-1.32 75.2-0.54 73.57 0.24 71.42 0.24ZM69.28-4.73L69.28 0.24Q67.13 0.24 65.5-0.51 63.87-1.27 62.8-2.44 61.72-3.61 61.19-4.88 60.65-6.14 60.65-7.12L60.65-7.12 60.65-26.91 65.72-26.91 65.72-7.75Q65.72-7.07 66.13-6.39 66.55-5.7 67.33-5.22 68.11-4.73 69.28-4.73L69.28-4.73ZM98.82 0L83.42 0 83.42-4.88 93.17-22.04 83.42-22.04 83.42-26.91 98.82-26.91 98.82-22.13 89.27-4.88 98.82-4.88 98.82 0ZM110.62-4.63L110.62 0Q108.53 0 106.94-0.78 105.36-1.56 104.31-2.73 103.26-3.9 102.72-5.14 102.19-6.39 102.19-7.31L102.19-7.31 102.19-19.7Q102.19-20.62 102.72-21.84 103.26-23.06 104.33-24.23 105.41-25.4 106.97-26.16 108.53-26.91 110.57-26.91L110.57-26.91 110.57-22.18Q109.55-22.18 108.82-21.7 108.09-21.21 107.65-20.53 107.21-19.84 107.21-19.26L107.21-19.26 107.21-16.28 116.77-16.28 116.77-19.21Q116.77-20.23 116.21-20.89 115.64-21.55 114.79-21.89 113.94-22.23 113.06-22.23L113.06-22.23 113.06-26.91Q115.01-26.91 116.94-25.99 118.86-25.06 120.15-23.45 121.45-21.84 121.45-19.75L121.45-19.75 121.45-11.46 107.21-11.46 107.21-7.31Q107.21-6.83 107.6-6.19 107.99-5.56 108.77-5.09 109.55-4.63 110.62-4.63L110.62-4.63ZM113.06 0L113.06 0 113.06-4.63Q114.33-4.63 115.21-5.12 116.08-5.61 116.62-6.34 117.16-7.07 117.35-7.8L117.35-7.8 121.5-6.24Q121.15-4.68 120.01-3.24 118.86-1.8 117.11-0.9 115.35 0 113.06 0Z" transform="translate(-1.850000023841858, 27.010000228881836)"></path></g>       </g></g> <g data-gra="path-slogan" fill-rule="" class="tp-slogan" transform="translate(-29.89630889892578,37.06500053405762)">  <g transform="scale(1, 1)"><g transform="scale(1.3600000000000003)"><path d="M0.62-3.94C0.62-3.30 0.71-2.72 0.89-2.21C1.06-1.71 1.31-1.28 1.62-0.93C1.93-0.58 2.30-0.32 2.74-0.13C3.17 0.05 3.64 0.14 4.16 0.14C4.69 0.14 5.17 0.06 5.59-0.11C6.01-0.29 6.34-0.50 6.60-0.77L6.60-4.08L4.02-4.08L4.02-3.25L5.69-3.25L5.69-1.20C5.53-1.06 5.32-0.94 5.07-0.86C4.82-0.77 4.55-0.73 4.27-0.73C3.85-0.73 3.47-0.81 3.15-0.96C2.83-1.11 2.55-1.33 2.33-1.61C2.11-1.89 1.95-2.23 1.83-2.62C1.71-3.02 1.66-3.46 1.66-3.96C1.66-4.45 1.72-4.89 1.84-5.28C1.97-5.67 2.14-6.01 2.36-6.28C2.59-6.56 2.86-6.77 3.18-6.92C3.50-7.07 3.86-7.14 4.26-7.14C4.66-7.14 4.99-7.07 5.25-6.93C5.51-6.79 5.74-6.62 5.94-6.41L6.50-7.04C6.27-7.28 5.97-7.51 5.61-7.71C5.25-7.91 4.79-8.02 4.25-8.02C3.72-8.02 3.24-7.92 2.80-7.73C2.36-7.55 1.97-7.28 1.65-6.92C1.33-6.57 1.07-6.14 0.89-5.64C0.71-5.14 0.62-4.57 0.62-3.94ZM11.78-3.20L9.42-3.20L9.79-4.40C9.94-4.84 10.07-5.28 10.20-5.72C10.33-6.15 10.45-6.60 10.57-7.06L10.62-7.06C10.75-6.60 10.88-6.15 11.00-5.72C11.13-5.28 11.27-4.84 11.41-4.40ZM12.04-2.40L12.78 0L13.85 0L11.18-7.87L10.06-7.87L7.39 0L8.41 0L9.17-2.40ZM14.96-7.87L14.96 0L15.89 0L15.89-4.33C15.89-4.68 15.87-5.07 15.84-5.50C15.81-5.92 15.78-6.31 15.76-6.66L15.80-6.66L16.43-4.91L17.95-0.79L18.52-0.79L20.03-4.91L20.66-6.66L20.71-6.66C20.68-6.31 20.65-5.92 20.62-5.50C20.59-5.07 20.58-4.68 20.58-4.33L20.58 0L21.53 0L21.53-7.87L20.35-7.87L18.84-3.65L18.29-2.04L18.24-2.04L17.66-3.65L16.14-7.87ZM23.69-7.87L23.69 0L28.34 0L28.34-0.85L24.68-0.85L24.68-3.71L27.67-3.71L27.67-4.56L24.68-4.56L24.68-7.03L28.22-7.03L28.22-7.87ZM31.63-7.87L33.30 0L34.49 0L35.65-4.74C35.72-5.04 35.78-5.34 35.85-5.63C35.92-5.93 35.98-6.22 36.05-6.53L36.10-6.53C36.16-6.22 36.22-5.93 36.28-5.63C36.34-5.34 36.41-5.04 36.48-4.74L37.67 0L38.87 0L40.50-7.87L39.54-7.87L38.71-3.59C38.63-3.16 38.56-2.74 38.48-2.32C38.41-1.90 38.34-1.48 38.27-1.04L38.22-1.04C38.12-1.48 38.03-1.90 37.93-2.33C37.84-2.75 37.74-3.17 37.64-3.59L36.55-7.87L35.64-7.87L34.55-3.59C34.46-3.16 34.37-2.74 34.27-2.32C34.18-1.90 34.08-1.48 34.00-1.04L33.95-1.04C33.88-1.48 33.80-1.90 33.72-2.32C33.64-2.73 33.56-3.16 33.49-3.59L32.66-7.87ZM44.70 0.14C45.20 0.14 45.65 0.05 46.06-0.14C46.47-0.34 46.83-0.61 47.13-0.97C47.43-1.32 47.66-1.75 47.83-2.26C47.99-2.77 48.07-3.34 48.07-3.97C48.07-4.60 47.99-5.16 47.83-5.66C47.66-6.16 47.43-6.58 47.13-6.93C46.83-7.28 46.47-7.55 46.06-7.73C45.65-7.92 45.20-8.02 44.70-8.02C44.20-8.02 43.75-7.92 43.34-7.74C42.93-7.56 42.57-7.29 42.28-6.94C41.98-6.59 41.75-6.17 41.59-5.67C41.42-5.17 41.34-4.60 41.34-3.97C41.34-3.34 41.42-2.77 41.59-2.26C41.75-1.75 41.98-1.32 42.28-0.97C42.57-0.61 42.93-0.34 43.34-0.14C43.75 0.05 44.20 0.14 44.70 0.14ZM44.70-0.73C44.35-0.73 44.03-0.81 43.75-0.96C43.46-1.11 43.22-1.33 43.01-1.61C42.81-1.90 42.65-2.24 42.54-2.63C42.43-3.03 42.37-3.48 42.37-3.97C42.37-4.46 42.43-4.90 42.54-5.29C42.65-5.68 42.81-6.02 43.01-6.29C43.22-6.56 43.46-6.77 43.75-6.92C44.03-7.07 44.35-7.14 44.70-7.14C45.05-7.14 45.37-7.07 45.65-6.92C45.94-6.77 46.18-6.56 46.39-6.29C46.59-6.02 46.75-5.68 46.86-5.29C46.97-4.90 47.03-4.46 47.03-3.97C47.03-3.48 46.97-3.03 46.86-2.63C46.75-2.24 46.59-1.90 46.39-1.61C46.18-1.33 45.94-1.11 45.65-0.96C45.37-0.81 45.05-0.73 44.70-0.73ZM50.76-4.14L50.76-7.07L52.08-7.07C52.70-7.07 53.17-6.96 53.50-6.76C53.82-6.55 53.99-6.18 53.99-5.66C53.99-5.15 53.82-4.77 53.50-4.52C53.17-4.27 52.70-4.14 52.08-4.14ZM54.08 0L55.21 0L53.22-3.43C53.76-3.57 54.18-3.82 54.50-4.19C54.82-4.56 54.98-5.05 54.98-5.66C54.98-6.07 54.92-6.42 54.78-6.70C54.64-6.98 54.45-7.20 54.21-7.38C53.97-7.56 53.67-7.68 53.33-7.76C52.99-7.83 52.62-7.87 52.22-7.87L49.76-7.87L49.76 0L50.76 0L50.76-3.32L52.19-3.32ZM56.74-7.87L56.74 0L61.18 0L61.18-0.85L57.73-0.85L57.73-7.87ZM62.57-7.87L62.57 0L64.58 0C65.18 0 65.70-0.09 66.16-0.27C66.61-0.45 67.00-0.71 67.31-1.05C67.62-1.39 67.86-1.81 68.02-2.30C68.18-2.79 68.26-3.35 68.26-3.97C68.26-5.23 67.94-6.19 67.31-6.86C66.68-7.54 65.75-7.87 64.54-7.87ZM64.46-0.82L63.56-0.82L63.56-7.06L64.46-7.06C65.38-7.06 66.07-6.79 66.53-6.26C66.99-5.74 67.22-4.97 67.22-3.97C67.22-2.97 66.99-2.20 66.53-1.64C66.07-1.09 65.38-0.82 64.46-0.82ZM72.37-7.87L72.37 0L73.37 0L73.37-7.87ZM75.53-7.87L75.53 0L76.48 0L76.48-4.12C76.48-4.53 76.46-4.95 76.43-5.36C76.41-5.77 76.38-6.18 76.34-6.58L76.39-6.58L77.24-4.96L80.10 0L81.13 0L81.13-7.87L80.18-7.87L80.18-3.80C80.18-3.39 80.20-2.97 80.23-2.54C80.25-2.11 80.28-1.70 80.30-1.30L80.26-1.30L79.40-2.93L76.56-7.87ZM86.99-3.05L86.99 0L88.00 0L88.00-3.05L90.36-7.87L89.32-7.87L88.31-5.65C88.19-5.36 88.06-5.08 87.92-4.80C87.79-4.52 87.65-4.23 87.52-3.94L87.47-3.94C87.33-4.23 87.20-4.52 87.08-4.80C86.96-5.08 86.84-5.36 86.71-5.65L85.69-7.87L84.62-7.87ZM94.16 0.14C94.66 0.14 95.11 0.05 95.53-0.14C95.94-0.34 96.29-0.61 96.59-0.97C96.89-1.32 97.13-1.75 97.29-2.26C97.45-2.77 97.54-3.34 97.54-3.97C97.54-4.60 97.45-5.16 97.29-5.66C97.13-6.16 96.89-6.58 96.59-6.93C96.29-7.28 95.94-7.55 95.53-7.73C95.11-7.92 94.66-8.02 94.16-8.02C93.67-8.02 93.21-7.92 92.80-7.74C92.39-7.56 92.04-7.29 91.74-6.94C91.44-6.59 91.21-6.17 91.05-5.67C90.89-5.17 90.80-4.60 90.80-3.97C90.80-3.34 90.89-2.77 91.05-2.26C91.21-1.75 91.44-1.32 91.74-0.97C92.04-0.61 92.39-0.34 92.80-0.14C93.21 0.05 93.67 0.14 94.16 0.14ZM94.16-0.73C93.81-0.73 93.49-0.81 93.21-0.96C92.93-1.11 92.68-1.33 92.48-1.61C92.27-1.90 92.12-2.24 92.00-2.63C91.89-3.03 91.84-3.48 91.84-3.97C91.84-4.46 91.89-4.90 92.00-5.29C92.12-5.68 92.27-6.02 92.48-6.29C92.68-6.56 92.93-6.77 93.21-6.92C93.49-7.07 93.81-7.14 94.16-7.14C94.52-7.14 94.83-7.07 95.12-6.92C95.40-6.77 95.65-6.56 95.85-6.29C96.05-6.02 96.21-5.68 96.32-5.29C96.44-4.90 96.49-4.46 96.49-3.97C96.49-3.48 96.44-3.03 96.32-2.63C96.21-2.24 96.05-1.90 95.85-1.61C95.65-1.33 95.40-1.11 95.12-0.96C94.83-0.81 94.52-0.73 94.16-0.73ZM99.19-7.87L99.19-3.25C99.19-2.62 99.26-2.09 99.41-1.66C99.55-1.22 99.75-0.87 100.00-0.61C100.25-0.34 100.55-0.15 100.90-0.03C101.25 0.09 101.62 0.14 102.02 0.14C102.42 0.14 102.80 0.09 103.14-0.03C103.48-0.15 103.78-0.34 104.03-0.61C104.29-0.87 104.48-1.22 104.63-1.66C104.77-2.09 104.84-2.62 104.84-3.25L104.84-7.87L103.88-7.87L103.88-3.23C103.88-2.76 103.84-2.36 103.74-2.04C103.64-1.72 103.51-1.46 103.34-1.27C103.18-1.08 102.98-0.94 102.76-0.86C102.53-0.77 102.29-0.73 102.02-0.73C101.77-0.73 101.53-0.77 101.30-0.86C101.08-0.94 100.89-1.08 100.72-1.27C100.56-1.46 100.43-1.72 100.33-2.04C100.24-2.36 100.19-2.76 100.19-3.23L100.19-7.87ZM107.96-4.14L107.96-7.07L109.28-7.07C109.90-7.07 110.37-6.96 110.70-6.76C111.03-6.55 111.19-6.18 111.19-5.66C111.19-5.15 111.03-4.77 110.70-4.52C110.37-4.27 109.90-4.14 109.28-4.14ZM111.29 0L112.42 0L110.42-3.43C110.96-3.57 111.39-3.82 111.71-4.19C112.03-4.56 112.19-5.05 112.19-5.66C112.19-6.07 112.12-6.42 111.98-6.70C111.85-6.98 111.66-7.20 111.41-7.38C111.17-7.56 110.88-7.68 110.54-7.76C110.20-7.83 109.83-7.87 109.43-7.87L106.97-7.87L106.97 0L107.96 0L107.96-3.32L109.39-3.32ZM115.91-3.94C115.91-3.30 115.99-2.72 116.17-2.21C116.34-1.71 116.58-1.28 116.89-0.93C117.19-0.58 117.56-0.32 117.98-0.13C118.40 0.05 118.86 0.14 119.35 0.14C119.86 0.14 120.30 0.04 120.70-0.16C121.09-0.36 121.44-0.64 121.75-1.00L121.19-1.61C120.93-1.33 120.66-1.11 120.38-0.96C120.09-0.81 119.76-0.73 119.38-0.73C119.00-0.73 118.66-0.81 118.36-0.96C118.06-1.11 117.81-1.33 117.60-1.61C117.39-1.89 117.23-2.23 117.11-2.62C117.00-3.02 116.94-3.46 116.94-3.96C116.94-4.45 117-4.89 117.12-5.28C117.24-5.67 117.41-6.01 117.62-6.28C117.84-6.56 118.10-6.77 118.40-6.92C118.71-7.07 119.05-7.14 119.42-7.14C119.76-7.14 120.05-7.07 120.31-6.94C120.56-6.81 120.79-6.63 121.00-6.41L121.56-7.04C121.33-7.30 121.03-7.53 120.67-7.72C120.31-7.92 119.89-8.02 119.41-8.02C118.91-8.02 118.44-7.92 118.01-7.73C117.59-7.55 117.22-7.28 116.90-6.92C116.59-6.57 116.35-6.14 116.17-5.64C116.00-5.14 115.91-4.57 115.91-3.94ZM123.22-7.87L123.22 0L127.66 0L127.66-0.85L124.21-0.85L124.21-7.87ZM129.05-7.87L129.05 0L130.04 0L130.04-7.87ZM131.75-3.94C131.75-3.30 131.83-2.72 132.01-2.21C132.18-1.71 132.42-1.28 132.73-0.93C133.03-0.58 133.40-0.32 133.82-0.13C134.24 0.05 134.70 0.14 135.19 0.14C135.70 0.14 136.14 0.04 136.54-0.16C136.93-0.36 137.28-0.64 137.59-1.00L137.03-1.61C136.77-1.33 136.50-1.11 136.22-0.96C135.93-0.81 135.60-0.73 135.22-0.73C134.84-0.73 134.50-0.81 134.20-0.96C133.90-1.11 133.65-1.33 133.44-1.61C133.23-1.89 133.07-2.23 132.95-2.62C132.84-3.02 132.78-3.46 132.78-3.96C132.78-4.45 132.84-4.89 132.96-5.28C133.08-5.67 133.25-6.01 133.46-6.28C133.68-6.56 133.94-6.77 134.24-6.92C134.55-7.07 134.89-7.14 135.26-7.14C135.60-7.14 135.89-7.07 136.15-6.94C136.40-6.81 136.63-6.63 136.84-6.41L137.40-7.04C137.17-7.30 136.87-7.53 136.51-7.72C136.15-7.92 135.73-8.02 135.25-8.02C134.75-8.02 134.28-7.92 133.85-7.73C133.43-7.55 133.06-7.28 132.74-6.92C132.43-6.57 132.19-6.14 132.01-5.64C131.84-5.14 131.75-4.57 131.75-3.94ZM139.06-7.87L139.06 0L140.05 0L140.05-2.50L141.41-4.09L143.76 0L144.88 0L142.03-4.87L144.49-7.87L143.36-7.87L140.09-3.92L140.05-3.92L140.05-7.87Z" transform="translate(-0.624, 8.016)"></path></g></g></g></g></mask><defs v-gra="od"><linearGradient x1="0" y1="1" x2="0" y2="0" id="442841bf-0283-4c46-82b2-21e3509f4a33"><stop offset="0%" stop-color="#fc51fa"></stop><stop offset="50%" stop-color="#fdaf42"></stop><stop offset="100%" stop-color="#2cd4ff"></stop></linearGradient><filter id="42443b3f1de60f6b6fd3b6a9844b4764" filterUnits="objectBoundingBox"><feColorMatrix type="matrix" values="0 0 0 0 0.99609375  0 0 0 0 0.99609375  0 0 0 0 0.99609375  0 0 0 1 0"></feColorMatrix></filter></defs><defs v-gra="id"><filter id="76c7e540-cc71-4165-888b-5a97bb2d0ce4" filterUnits="userSpaceOnUse"><feColorMatrix type="matrix" values="0 0 0 0 0.99609375  0 0 0 0 0.99609375  0 0 0 0 0.99609375  0 0 0 1 0"></feColorMatrix></filter><linearGradient x1="0" y1="1" x2="0" y2="0" id="Iv4Rg8WnShk1q9E3H-bar"><stop offset="0%" stop-color="#fc51fa"></stop><stop offset="50%" stop-color="#fdaf42"></stop><stop offset="100%" stop-color="#2cd4ff"></stop></linearGradient><filter id="42443b3f1de60f6b6fd3b6a9844b4764" filterUnits="objectBoundingBox"><feColorMatrix type="matrix" values="0 0 0 0 0.99609375  0 0 0 0 0.99609375  0 0 0 0 0.99609375  0 0 0 1 0"></feColorMatrix></filter></defs><mask v-gra="im" id="95d7be03-dbf1-4e3a-bbba-92da9701b516"><g mask="url(#406dfe07-4306-4f1c-a773-1e218bea5235)" filter="url(#76c7e540-cc71-4165-888b-5a97bb2d0ce4)"><g><rect fill="#fc51fa" fill-opacity="0" stroke-width="2" x="0" y="0" width="150" height="90.61527773582625" class="image-rect"></rect> <svg x="0" y="0" width="150" height="90.61527773582625" filtersec="colorsf4214536580" class="image-svg-svg primary" style="overflow: visible;"><svg xmlns="http://www.w3.org/2000/svg" xmlns:xlink="http://www.w3.org/1999/xlink" version="1.1" x="0px" y="0px" viewBox="1.9851303100585938 6 20.029739379882812 12.100000381469727" xml:space="preserve"><title>game</title><path d="M21.7,11.3L20.4,8c-0.4-1.2-1.5-2-2.8-2H6.4C5.1,6,4,6.8,3.6,8l-1.3,3.3c-0.9,2.4,0.2,5.1,2.4,6.2l0.8,0.4  c0.5,0.2,1.1,0.1,1.3-0.4l1.4-2.9C8.5,14.2,8.9,14,9.2,14h5.5c0.4,0,0.7,0.2,0.9,0.6l1.5,2.9c0.2,0.3,0.5,0.5,0.9,0.6  c0.2,0,0.3,0,0.5-0.1l0.8-0.4C21.5,16.4,22.6,13.7,21.7,11.3z M18.5,15.7l-1-2c-0.5-1-1.6-1.7-2.7-1.7H9.2c-1.1,0-2.2,0.6-2.7,1.7  l-1,2c-1.3-0.7-1.9-2.3-1.3-3.7l1.3-3.4C5.6,8.3,6,8,6.4,8h11.2c0.4,0,0.8,0.3,0.9,0.6l1.2,3.4C20.3,13.4,19.7,14.9,18.5,15.7z"></path></svg></svg> <defs><filter id="colors4550370840"><feColorMatrix type="matrix" values="0 0 0 0 0.984375  0 0 0 0 0.31640625  0 0 0 0 0.9765625  0 0 0 1 0" class="icon-fecolormatrix"></feColorMatrix></filter> <filter id="colorsf4214536580"><feColorMatrix type="matrix" values="0 0 0 0 0.99609375  0 0 0 0 0.99609375  0 0 0 0 0.99609375  0 0 0 1 0" class="icon-fecolormatrix"></feColorMatrix></filter> <filter id="colorsb9893044097"><feColorMatrix type="matrix" values="0 0 0 0 0  0 0 0 0 0  0 0 0 0 0  0 0 0 1 0" class="icon-fecolormatrix"></feColorMatrix></filter></defs></g></g></mask></svg>